<?xml version="1.0" encoding="utf-8"?>
<!-- Generator: Adobe Illustrator 16.0.0, SVG Export Plug-In . SVG Version: 6.00 Build 0)  -->
<!DOCTYPE svg PUBLIC "-//W3C//DTD SVG 1.1//EN" "http://www.w3.org/Graphics/SVG/1.1/DTD/svg11.dtd">
<svg version="1.1" id="Layer_1" xmlns="http://www.w3.org/2000/svg" xmlns:xlink="http://www.w3.org/1999/xlink" x="0px" y="0px"
	 width="124px" height="124px" viewBox="0 0 124 124" enable-background="new 0 0 124 124" xml:space="preserve">
<circle fill="#E3F3FF" cx="61" cy="61.06" r="47.252"/>
<g>
	<g>
		<g>
			<path fill="#4083FF" d="M114.529,102.654L94.252,82.377c0.557-0.85,0.463-2-0.283-2.746s-1.896-0.84-2.746-0.283l-5.41-5.412
				c4.045-6.004,6.59-12.957,7.326-20.21c1.01-9.934-1.393-20.004-6.764-28.355c-0.652-1.016-2.006-1.31-3.021-0.657
				c-1.018,0.653-1.311,2.007-0.658,3.023c10.043,15.617,7.789,36.496-5.363,49.646c-15.519,15.521-40.773,15.521-56.293,0
				c-15.521-15.519-15.521-40.772,0-56.292c13.165-13.165,33.38-15.497,49.161-5.672c1.023,0.638,2.373,0.325,3.012-0.701
				s0.324-2.374-0.701-3.013C64.184,6.52,54.197,4.252,44.389,5.316c-9.956,1.082-19.348,5.585-26.444,12.681
				c-17.226,17.226-17.226,45.255,0,62.479c8.613,8.613,19.927,12.92,31.241,12.92c8.619,0,17.236-2.502,24.662-7.502l5.385,5.385
				c-0.809,0.857-0.797,2.207,0.043,3.045c0.426,0.428,0.986,0.641,1.545,0.641c0.541,0,1.08-0.199,1.5-0.598l20.248,20.248
				c1.631,1.631,3.771,2.443,5.92,2.443c2.168,0,4.344-0.828,6-2.486C117.785,111.275,117.805,105.928,114.529,102.654z
				 M78.361,84.223l5.775-5.775l3.961,3.961l-5.775,5.775L78.361,84.223z M111.395,111.48c-1.592,1.592-4.164,1.611-5.732,0.043
				L85.416,91.277l5.775-5.775l20.246,20.246C113.006,107.316,112.986,109.889,111.395,111.48z"/>
		</g>
	</g>
	<g>
		<g>
			<path fill="#4083FF" d="M80.479,18.049l-0.049-0.047c-0.85-0.857-2.236-0.861-3.092-0.01c-0.857,0.852-0.861,2.236-0.01,3.093
				l0.057,0.057c0.428,0.427,0.986,0.641,1.547,0.641s1.119-0.213,1.547-0.641C81.332,20.289,81.332,18.904,80.479,18.049z"/>
		</g>
	</g>
	<g>
		<g>
			<path fill="#4083FF" d="M49.186,15.556c-18.572,0-33.683,15.109-33.683,33.682c0,18.571,15.11,33.682,33.683,33.682
				c18.572,0,33.681-15.111,33.681-33.682C82.867,30.665,67.758,15.556,49.186,15.556z M49.186,78.545
				c-16.161,0-29.308-13.148-29.308-29.308c0-16.16,13.146-29.308,29.308-29.308c16.16,0,29.308,13.147,29.308,29.308
				C78.494,65.396,65.346,78.545,49.186,78.545z"/>
		</g>
	</g>
	<g>
		<g>
			<path fill="#F5A623" d="M101.754,7.682c-1.207,0-2.188,0.979-2.188,2.187v2.719c0,1.208,0.98,2.187,2.188,2.187
				s2.188-0.979,2.188-2.187V9.869C103.941,8.661,102.961,7.682,101.754,7.682z"/>
		</g>
	</g>
	<g>
		<g>
			<path fill="#F5A623" d="M101.754,20.71c-1.207,0-2.188,0.979-2.188,2.187v2.719c0,1.208,0.98,2.187,2.188,2.187
				s2.188-0.979,2.188-2.187v-2.718C103.941,21.69,102.961,20.71,101.754,20.71z"/>
		</g>
	</g>
	<g>
		<g>
			<path fill="#F5A623" d="M109.627,15.556h-2.719c-1.207,0-2.186,0.979-2.186,2.187s0.979,2.187,2.186,2.187h2.719
				c1.209,0,2.188-0.979,2.188-2.187S110.836,15.556,109.627,15.556z"/>
		</g>
	</g>
	<g>
		<g>
			<path fill="#F5A623" d="M96.6,15.556h-2.719c-1.209,0-2.188,0.979-2.188,2.187s0.979,2.187,2.188,2.187H96.6
				c1.207,0,2.186-0.979,2.186-2.187S97.807,15.556,96.6,15.556z"/>
		</g>
	</g>
	<g>
		<g>
			<path fill="#F5A623" d="M18.548,95.186c-1.208,0-2.188,0.979-2.188,2.188v2.719c0,1.207,0.979,2.188,2.188,2.188
				s2.188-0.98,2.188-2.188v-2.719C20.736,96.164,19.756,95.186,18.548,95.186z"/>
		</g>
	</g>
	<g>
		<g>
			<path fill="#F5A623" d="M18.548,108.215c-1.208,0-2.188,0.979-2.188,2.188v2.719c0,1.207,0.979,2.186,2.188,2.186
				s2.188-0.979,2.188-2.186v-2.719C20.736,109.193,19.756,108.215,18.548,108.215z"/>
		</g>
	</g>
	<g>
		<g>
			<path fill="#F5A623" d="M26.422,103.059h-2.719c-1.208,0-2.188,0.98-2.188,2.188c0,1.209,0.979,2.188,2.188,2.188h2.719
				c1.208,0,2.187-0.979,2.187-2.188C28.609,104.039,27.63,103.059,26.422,103.059z"/>
		</g>
	</g>
	<g>
		<g>
			<path fill="#F5A623" d="M13.393,103.059h-2.719c-1.208,0-2.187,0.98-2.187,2.188c0,1.209,0.979,2.188,2.187,2.188h2.719
				c1.208,0,2.188-0.979,2.188-2.188C15.581,104.039,14.601,103.059,13.393,103.059z"/>
		</g>
	</g>
</g>
</svg>
